<?xml version="1.0" encoding="UTF-8" standalone="no"?>
<!-- Created with Inkscape (http://www.inkscape.org/) -->

<svg
   version="1.1"
   id="svg1"
   width="4096"
   height="1200"
   viewBox="0 0 4096 1200"
   sodipodi:docname="ex.svg"
   inkscape:version="1.3.2 (091e20e, 2023-11-25, custom)"
   xmlns:inkscape="http://www.inkscape.org/namespaces/inkscape"
   xmlns:sodipodi="http://sodipodi.sourceforge.net/DTD/sodipodi-0.dtd"
   xmlns="http://www.w3.org/2000/svg"
   xmlns:svg="http://www.w3.org/2000/svg">
  <defs
     id="defs1" />
  <sodipodi:namedview
     id="namedview1"
     pagecolor="#505050"
     bordercolor="#eeeeee"
     borderopacity="1"
     inkscape:showpageshadow="0"
     inkscape:pageopacity="0"
     inkscape:pagecheckerboard="0"
     inkscape:deskcolor="#505050"
     inkscape:zoom="0.68505859"
     inkscape:cx="724.75553"
     inkscape:cy="606.51747"
     inkscape:window-width="1920"
     inkscape:window-height="1009"
     inkscape:window-x="-8"
     inkscape:window-y="-8"
     inkscape:window-maximized="1"
     inkscape:current-layer="g1" />
  <g
     inkscape:groupmode="layer"
     inkscape:label="Image"
     id="g1">
    <path
       style="fill:#000000"
       d="M 0.36493229,644.10549 H 46.711333 l 15.327156,16.05702 96.342121,-0.72986 16.42196,-15.69209 64.22808,-1.82466 18.97648,18.61154 158.01568,0.72987 20.07127,-21.16608 169.32859,2.91946 29.92444,-19.34141 109.11476,1.82466 1.0948,-17.15182 66.41767,1.45973 h 8.39344 l 43.42695,-45.98146 17.15181,15.32715 29.92445,14.23236 0.36493,35.39843 32.11405,-1.45973 32.11404,-33.9387 111.66929,1.0948 17.1518,15.69209 27.005,0.36493 17.8817,-13.13756 5.474,-5.10906 71.1618,1.82467 18.2466,32.8439 19.3414,-0.72986 12.4077,14.96222 35.3984,1.0948 17.8817,-18.24662 48.536,1.45973 0.3649,-31.01924 h 28.4647 l 0.365,35.0335 5.8389,-1.0948 -1.0948,-86.48895 20.4362,-25.18033 12.0428,-5.83892 h 41.2373 l 5.1091,2.91946 27.005,-14.96222 19.3414,-0.36493 14.5973,12.40769 0.3649,34.66857 -54.01,52.55025 v 25.54526 l 20.8012,-0.36493 13.8674,16.05702 7.2986,-0.72987 24.4505,-57.29436 6.9337,-0.72987 7.6636,15.32716 -1.0948,173.70777 59.119,-0.36494 0.3649,-175.16749 -36.8581,-32.47898 1.8246,-33.20884 31.0193,-14.23236 33.9387,17.51675 27.3699,-1.09479 31.0193,-15.69209 21.531,-0.36493 13.5025,14.59729 -0.365,32.11404 -55.4697,56.19957 1.8247,151.81183 h 251.4383 l 0.365,-204.72701 -36.8582,-35.39843 14.5973,-15.69209 17.8817,0.72986 h 32.114 l 26.6401,63.86316 36.4932,0.36493 29.9244,63.13328 114.5888,-0.72986 -0.3649,-14.96223 h 29.5595 l 0.3649,14.5973 111.3043,1.45973 263.4812,-1.0948 -1.8247,-80.65004 -34.3036,-30.65431 -0.365,-33.20884 29.9245,-13.86742 35.7633,17.15181 18.2467,-21.16607 0.7298,-74.44619 -36.1283,-35.76336 v -31.74911 l 28.8297,-14.23236 33.2088,16.05702 76.6358,-1.45973 120.4277,64.95795 120.4276,0.36493 14.5973,30.65431 18.2466,-0.36493 22.9907,20.07128 58.3892,-2.55453 1.0948,-33.57377 31.7491,-30.65431 h 17.1518 l 47.8062,49.63079 7.2986,-17.88168 h 52.1853 l 18.6116,16.78688 30.6543,-0.36493 24.8154,-18.97648 29.1946,0.36493 27.7348,35.76337 32.8439,-0.36493 21.1661,-19.70635 54.7398,1.0948 20.0713,19.34141 573.3086,-2.18959 1.0948,64.22808 -1280.1824,-0.72986 1.0948,256.91233 -857.5909,-0.36494 H -0.72986458 Z"
       id="path24" />
  </g>
</svg>
