<?xml version="1.0" encoding="UTF-8" standalone="no"?>
<!-- Created with Inkscape (http://www.inkscape.org/) -->

<svg
   version="1.1"
   id="svg1"
   width="4096"
   height="1200"
   viewBox="0 0 4096 1200"
   sodipodi:docname="ex.svg"
   inkscape:version="1.3.2 (091e20e, 2023-11-25, custom)"
   xmlns:inkscape="http://www.inkscape.org/namespaces/inkscape"
   xmlns:sodipodi="http://sodipodi.sourceforge.net/DTD/sodipodi-0.dtd"
   xmlns="http://www.w3.org/2000/svg"
   xmlns:svg="http://www.w3.org/2000/svg">
  <defs
     id="defs1" />
  <sodipodi:namedview
     id="namedview1"
     pagecolor="#505050"
     bordercolor="#eeeeee"
     borderopacity="1"
     inkscape:showpageshadow="0"
     inkscape:pageopacity="0"
     inkscape:pagecheckerboard="0"
     inkscape:deskcolor="#505050"
     inkscape:zoom="0.68505859"
     inkscape:cx="724.75553"
     inkscape:cy="606.51747"
     inkscape:window-width="1920"
     inkscape:window-height="1009"
     inkscape:window-x="-8"
     inkscape:window-y="-8"
     inkscape:window-maximized="1"
     inkscape:current-layer="g1" />
  <g
     inkscape:groupmode="layer"
     inkscape:label="Image"
     id="g1">
    <path
       style="fill:#000000;stroke-width:1.49999"
       d="M 2.3720599,1006.4829 H 71.891661 l 22.990735,24.0855 144.513184,-1.0948 24.63294,-23.5381 96.34212,-2.737 28.46472,27.9173 237.02352,1.0948 30.10691,-31.7491 253.99289,4.3792 44.88666,-29.01209 163.67206,2.73699 1.6422,-25.72772 99.6266,2.1896 h 12.5901 l 65.1404,-68.97214 25.7278,22.9907 44.8866,21.34853 0.5474,53.09761 48.1711,-2.18959 48.1711,-50.90802 167.5039,1.6422 25.7277,23.53812 40.5075,0.54739 26.8225,-19.70633 8.211,-7.66358 106.7427,2.73701 27.3699,49.26581 29.0121,-1.09479 18.6116,22.4433 53.0976,1.6422 26.8225,-27.3699 72.8041,2.1896 0.5473,-46.52883 h 42.6971 l 0.5475,52.55022 8.7583,-1.6422 -1.6422,-129.73334 30.6543,-37.77047 18.0642,-8.75837 h 61.856 l 7.6636,4.37919 40.5075,-22.44332 29.0121,-0.54739 21.896,18.61152 0.5473,52.00282 -81.015,78.82531 v 38.31787 l 31.2018,-0.5474 20.8011,24.08552 10.9479,-1.0948 36.6758,-85.94149 10.4005,-1.0948 11.4954,22.99072 -1.6422,260.56144 88.6785,-0.5474 0.5474,-262.75102 -55.2872,-48.71844 2.7369,-49.81322 46.529,-21.34852 50.908,26.2751 41.0549,-1.64218 46.5289,-23.53813 32.2965,-0.54738 20.2538,21.89591 -0.5475,48.17102 -83.2046,84.2993 2.7371,227.71756 h 377.1574 l 0.5475,-307.09027 -55.2873,-53.09761 21.896,-23.53811 26.8225,1.09479 h 48.171 l 39.9602,95.79466 54.7398,0.54739 44.8866,94.69985 171.8832,-1.0948 -0.5474,-22.44331 h 44.3393 l 0.5473,21.89591 166.9565,2.1896 395.2218,-1.6422 -2.7371,-120.97496 -51.4554,-45.98142 -0.5475,-49.81322 44.8868,-20.80112 53.6449,25.72769 27.3701,-31.74907 1.0947,-111.66921 -54.1925,-53.645 v -47.62364 l 43.2446,-21.34852 49.8132,24.08551 114.9537,-2.18959 180.6415,97.43685 180.6414,0.5474 21.896,45.98143 27.3699,-0.54739 34.486,30.10689 87.5838,-3.83179 1.6422,-50.36062 47.6237,-45.98143 h 25.7277 l 71.7093,74.44613 10.9479,-26.8225 h 78.2779 l 27.9174,25.1803 45.9815,-0.54739 37.2231,-28.4647 43.7919,0.5474 41.6022,53.64501 49.2658,-0.54739 31.7492,-29.55951 82.1097,1.6422 30.1069,29.0121 859.9629,-3.28439 1.6422,96.34206 -1920.2736,-1.09479 1.6422,385.36818 -1286.3863,-0.5474 H 0.72986458 Z"
       id="path24" />
  </g>
</svg>
