<?xml version="1.0" encoding="UTF-8" standalone="no"?>
<!-- Created with Inkscape (http://www.inkscape.org/) -->

<svg
   version="1.1"
   id="svg1"
   width="4096"
   height="1200"
   viewBox="0 0 4096 1200"
   sodipodi:docname="ex2.svg"
   inkscape:version="1.3.2 (091e20e, 2023-11-25, custom)"
   xmlns:inkscape="http://www.inkscape.org/namespaces/inkscape"
   xmlns:sodipodi="http://sodipodi.sourceforge.net/DTD/sodipodi-0.dtd"
   xmlns="http://www.w3.org/2000/svg"
   xmlns:svg="http://www.w3.org/2000/svg">
  <defs
     id="defs1" />
  <sodipodi:namedview
     id="namedview1"
     pagecolor="#505050"
     bordercolor="#eeeeee"
     borderopacity="1"
     inkscape:showpageshadow="0"
     inkscape:pageopacity="0"
     inkscape:pagecheckerboard="0"
     inkscape:deskcolor="#505050"
     inkscape:zoom="0.24220479"
     inkscape:cx="2557.7529"
     inkscape:cy="270.43231"
     inkscape:window-width="1920"
     inkscape:window-height="1009"
     inkscape:window-x="-8"
     inkscape:window-y="-8"
     inkscape:window-maximized="1"
     inkscape:current-layer="g1" />
  <g
     inkscape:groupmode="layer"
     inkscape:label="Image"
     id="g1">
    <path
       style="fill:#000000;stroke-width:1.74193"
       d="M 0.44733584,982.17356 H 81.179755 l 26.698915,27.97014 167.82172,-1.2714 28.60598,-27.33444 111.88115,-3.1785 33.05579,32.42004 275.25305,1.2714 34.96285,-36.86984 294.95939,5.0855 52.1264,-33.6915 190.0708,3.1785 1.907,-29.8774 115.6954,2.5428 h 14.6208 l 75.6469,-80.09667 29.8774,26.69887 52.1264,24.79183 0.6357,61.66177 55.9406,-2.5428 55.9406,-59.11897 194.5206,1.90707 29.8773,27.3346 47.041,0.6357 31.1487,-22.8848 9.5353,-8.89964 123.9593,3.17847 31.7843,57.21187 33.6915,-1.2713 21.6135,26.0631 61.6617,1.9071 31.1487,-31.7844 84.5467,2.5428 0.6355,-54.0335 h 49.5838 l 0.6358,61.0261 10.1709,-1.9071 -1.9071,-150.65806 35.5985,-43.86247 20.9778,-10.171 h 71.8328 l 8.8996,5.08551 47.041,-26.06321 33.6915,-0.63568 25.4276,21.61338 0.6355,60.39035 -94.0819,91.53908 v 44.4981 l 36.2344,-0.6357 24.1561,27.9703 12.7137,-1.2714 42.5912,-99.80296 12.078,-1.27138 13.3495,26.69894 -1.9071,302.58734 102.9815,-0.6357 0.6357,-305.13011 -64.2045,-56.57624 3.1783,-57.8476 54.0337,-24.79182 59.1189,30.51301 47.6767,-1.90705 54.0335,-27.3346 37.5056,-0.63566 23.5206,25.4275 -0.6358,55.94053 -96.6247,97.8959 3.1786,264.44614 h 437.9891 l 0.6358,-356.62084 -64.2046,-61.66173 25.4276,-27.33457 31.1487,1.27137 h 55.9405 l 46.4054,111.24538 63.5688,0.63568 52.1263,109.97397 199.6063,-1.2714 -0.6357,-26.0631 h 51.4908 l 0.6355,25.4275 193.885,2.5427 458.9671,-1.9071 -3.1786,-140.48697 -59.7546,-53.39777 -0.6358,-57.8476 52.1266,-24.15613 62.2973,29.87731 31.7846,-36.86988 1.2712,-129.68034 -62.9332,-62.29741 v -55.30486 l 50.2196,-24.79182 57.8475,27.97026 133.4946,-2.54275 209.7772,113.15245 209.777,0.63569 25.4276,53.39778 31.7844,-0.63568 40.0483,34.96283 101.7102,-4.44982 1.907,-58.48329 55.305,-53.39777 h 29.8773 l 83.2753,86.45355 12.7137,-31.14871 h 90.9033 l 32.4202,29.24164 53.3979,-0.63568 43.2268,-33.05578 50.8551,0.63569 48.3122,62.29742 57.2119,-0.63568 36.87,-34.32716 95.3532,1.90707 34.9628,33.69146 998.6664,-3.81413 1.907,111.88108 -2229.9945,-1.27137 1.907,447.52421 -1493.8675,-0.6357 H -1.4597292 Z"
       id="path24" />
  </g>
</svg>
